<svg xmlns="http://www.w3.org/2000/svg" width="16" height="16" fill="none"><g fill="#fff" clip-path="url(#a)"><path d="M12 9.998a3 3 0 0 0-2.5 1.347 3.42 3.42 0 0 0-3 0 3.006 3.006 0 1 0 .455 2.106 1.52 1.52 0 0 1 2.092 0A3 3 0 1 0 12 9.998m-8 4a1 1 0 1 1 0-2 1 1 0 0 1 0 2m8 0a1 1 0 1 1 0-2 1 1 0 0 1 0 2M12.8 4 12.08.4a.5.5 0 0 0-.49-.4H4.41a.5.5 0 0 0-.49.4L3.2 4zM13 5H3L.427 7.573A.25.25 0 0 0 .6 8h14.8a.25.25 0 0 0 .177-.427z"/></g><defs><clipPath id="a"><path fill="#fff" d="M0 0h16v16H0z"/></clipPath></defs></svg>