<svg xmlns="http://www.w3.org/2000/svg" width="56" height="56" fill="none"><rect width="3.444" height="3.444" x="15.518" y="6.047" fill="#fff" rx="1.722" transform="rotate(180 15.518 6.047)"/><rect width="6.026" height="6.026" x="26.279" y="7.336" fill="#fff" rx="3.013" transform="rotate(180 26.28 7.336)"/><rect width="6.026" height="6.026" x="35.75" y="7.336" fill="#fff" rx="3.013" transform="rotate(180 35.75 7.336)"/><rect width="3.444" height="3.444" x="43.928" y="6.047" fill="#fff" rx="1.722" transform="rotate(180 43.928 6.047)"/><rect width="3.444" height="3.444" x="6.049" y="15.516" fill="#fff" rx="1.722" transform="rotate(180 6.049 15.516)"/><rect width="6.026" height="6.026" x="16.811" y="16.805" fill="#fff" rx="3.013" transform="rotate(180 16.81 16.805)"/><rect width="3.444" height="3.444" x="24.988" y="15.516" fill="#fff" rx="1.722" transform="rotate(180 24.988 15.516)"/><rect width="3.444" height="3.444" x="34.457" y="15.516" fill="#fff" rx="1.722" transform="rotate(180 34.457 15.516)"/><rect width="6.026" height="6.026" x="45.219" y="16.805" fill="#fff" rx="3.013" transform="rotate(180 45.219 16.805)"/><rect width="3.444" height="3.444" x="53.398" y="15.516" fill="#fff" rx="1.722" transform="rotate(180 53.398 15.516)"/><rect width="6.026" height="6.026" x="7.34" y="26.273" fill="#fff" rx="3.013" transform="rotate(180 7.34 26.273)"/><rect width="3.444" height="3.444" x="15.518" y="24.984" fill="#fff" rx="1.722" transform="rotate(180 15.518 24.984)"/><rect width="1.722" height="1.722" x="24.129" y="24.125" fill="#fff" rx=".861" transform="rotate(180 24.129 24.125)"/><rect width="1.722" height="1.722" x="33.598" y="24.125" fill="#fff" rx=".861" transform="rotate(180 33.598 24.125)"/><rect width="3.444" height="3.444" x="43.928" y="24.984" fill="#fff" rx="1.722" transform="rotate(180 43.928 24.984)"/><rect width="6.026" height="6.026" x="54.688" y="26.273" fill="#fff" rx="3.013" transform="rotate(180 54.688 26.273)"/><rect width="6.026" height="6.026" x="7.34" y="35.742" fill="#fff" rx="3.013" transform="rotate(180 7.34 35.742)"/><rect width="3.444" height="3.444" x="15.518" y="34.453" fill="#fff" rx="1.722" transform="rotate(180 15.518 34.453)"/><rect width="1.722" height="1.722" x="24.129" y="33.594" fill="#fff" rx=".861" transform="rotate(180 24.129 33.594)"/><rect width="1.722" height="1.722" x="33.598" y="33.594" fill="#fff" rx=".861" transform="rotate(180 33.598 33.594)"/><rect width="3.444" height="3.444" x="43.928" y="34.453" fill="#fff" rx="1.722" transform="rotate(180 43.928 34.453)"/><rect width="6.026" height="6.026" x="54.688" y="35.742" fill="#fff" rx="3.013" transform="rotate(180 54.688 35.742)"/><rect width="3.444" height="3.444" x="6.049" y="43.922" fill="#fff" rx="1.722" transform="rotate(180 6.049 43.922)"/><rect width="6.026" height="6.026" x="16.811" y="45.211" fill="#fff" rx="3.013" transform="rotate(180 16.81 45.21)"/><rect width="3.444" height="3.444" x="24.988" y="43.922" fill="#fff" rx="1.722" transform="rotate(180 24.988 43.922)"/><rect width="3.444" height="3.444" x="34.457" y="43.922" fill="#fff" rx="1.722" transform="rotate(180 34.457 43.922)"/><rect width="6.026" height="6.026" x="45.219" y="45.211" fill="#fff" rx="3.013" transform="rotate(180 45.219 45.21)"/><rect width="3.444" height="3.444" x="53.398" y="43.922" fill="#fff" rx="1.722" transform="rotate(180 53.398 43.922)"/><rect width="3.444" height="3.444" x="15.518" y="53.391" fill="#fff" rx="1.722" transform="rotate(180 15.518 53.39)"/><rect width="6.026" height="6.026" x="26.279" y="54.688" fill="#fff" rx="3.013" transform="rotate(180 26.28 54.688)"/><rect width="6.026" height="6.026" x="35.75" y="54.688" fill="#fff" rx="3.013" transform="rotate(180 35.75 54.688)"/><rect width="3.444" height="3.444" x="43.928" y="53.391" fill="#fff" rx="1.722" transform="rotate(180 43.928 53.39)"/></svg>