<svg xmlns="http://www.w3.org/2000/svg" width="32" height="32" fill="none"><g clip-path="url(#a)"><path fill="#FF3621" d="M31.233 23.695v-5.638l-.608-.38-14.607 8-13.846-7.62v-3.276l13.846 7.543 15.291-8.305V8.457l-.608-.38-14.683 8.075L2.705 8.838l13.313-7.314L26.745 7.39l.837-.457v-.61L16.018 0 .727 8.305v.838l15.29 8.38 13.847-7.618v3.352l-13.846 7.62L1.335 12.8l-.608.381v5.638l15.29 8.305 13.847-7.543v3.276l-13.846 7.62-14.683-8-.608.38v.838L16.017 32z"/></g><defs><clipPath id="a"><path fill="#fff" d="M0 0h32v32H0z"/></clipPath></defs></svg>