<svg xmlns="http://www.w3.org/2000/svg" width="56" height="56" fill="none"><g fill="#fff" clip-path="url(#a)"><rect width="1.776" height="1.776" x="46.84" y="48.094" rx=".888" transform="rotate(-45 46.84 48.094)"/><rect width="1.776" height="1.776" x="53.488" y="28" rx=".888" transform="rotate(-45 53.488 28)"/><rect width="3.552" height="3.552" x="39.303" y="41.813" rx="1.776" transform="rotate(-45 39.303 41.813)"/><rect width="1.776" height="1.776" x="26.742" y="54.742" rx=".888" transform="rotate(-45 26.742 54.742)"/><rect width="3.552" height="3.552" x="39.305" y="28" rx="1.776" transform="rotate(-45 39.305 28)"/><rect width="6.217" height="6.217" x="30.512" y="34.906" rx="3.108" transform="rotate(-45 30.512 34.906)"/><rect width="3.552" height="3.552" x="25.488" y="41.813" rx="1.776" transform="rotate(-45 25.488 41.813)"/><rect width="1.776" height="1.776" x="46.84" y="7.906" rx=".888" transform="rotate(-45 46.84 7.906)"/><rect width="3.552" height="3.552" x="39.303" y="14.188" rx="1.776" transform="rotate(-45 39.303 14.188)"/><rect width="6.217" height="6.217" x="30.512" y="21.094" rx="3.108" transform="rotate(-45 30.512 21.094)"/><rect width="6.217" height="6.217" x="23.605" y="28" rx="3.108" transform="rotate(-45 23.605 28)"/><rect width="6.217" height="6.217" x="16.695" y="34.906" rx="3.108" transform="rotate(-45 16.695 34.906)"/><rect width="3.552" height="3.552" x="11.672" y="41.813" rx="1.776" transform="rotate(-45 11.672 41.813)"/><rect width="3.552" height="3.552" x="25.488" y="14.188" rx="1.776" transform="rotate(-45 25.488 14.188)"/><rect width="6.217" height="6.217" x="16.697" y="21.094" rx="3.108" transform="rotate(-45 16.697 21.094)"/><rect width="3.552" height="3.552" x="11.672" y="28" rx="1.776" transform="rotate(-45 11.672 28)"/><rect width="1.776" height="1.776" x="26.742" y="1.258" rx=".888" transform="rotate(-45 26.742 1.258)"/><rect width="3.552" height="3.552" x="11.672" y="14.18" rx="1.776" transform="rotate(-45 11.672 14.18)"/><rect width="1.776" height="1.776" y="28" rx=".888" transform="rotate(-45 0 28)"/><rect width="1.776" height="1.776" x="6.648" y="7.906" rx=".888" transform="rotate(-45 6.648 7.906)"/><rect width="1.776" height="1.776" x="6.65" y="48.094" rx=".888" transform="rotate(-45 6.65 48.094)"/></g><defs><clipPath id="a"><path fill="#fff" d="M0 0h56v56H0z"/></clipPath></defs></svg>