<svg xmlns="http://www.w3.org/2000/svg" width="56" height="56" fill="none"><g fill="#fff" clip-path="url(#a)"><rect width="5.715" height="5.715" x="51.959" y="8.082" rx="2.858" transform="rotate(-135 51.959 8.082)"/><rect width="5.715" height="5.715" x="39.258" y="8.082" rx="2.858" transform="rotate(-135 39.258 8.082)"/><rect width="5.715" height="5.715" x="45.609" y="14.43" rx="2.858" transform="rotate(-135 45.61 14.43)"/><rect width="5.715" height="5.715" x="51.959" y="20.781" rx="2.858" transform="rotate(-135 51.959 20.781)"/><rect width="5.715" height="5.715" x="26.557" y="8.078" rx="2.858" transform="rotate(-135 26.557 8.078)"/><rect width="4.082" height="4.082" x="32.908" y="13.277" rx="2.041" transform="rotate(-135 32.908 13.277)"/><rect width="4.082" height="4.082" x="39.258" y="19.625" rx="2.041" transform="rotate(-135 39.258 19.625)"/><rect width="4.082" height="4.082" x="45.609" y="25.977" rx="2.041" transform="rotate(-135 45.61 25.977)"/><rect width="5.715" height="5.715" x="51.961" y="33.48" rx="2.858" transform="rotate(-135 51.96 33.48)"/><rect width="4.082" height="4.082" x="20.207" y="13.277" rx="2.041" transform="rotate(-135 20.207 13.277)"/><rect width="3.266" height="3.266" x="26.557" y="19.051" rx="1.633" transform="rotate(-135 26.557 19.05)"/><rect width="4.082" height="4.082" x="32.908" y="25.977" rx="2.041" transform="rotate(-135 32.908 25.977)"/><rect width="3.266" height="3.266" x="39.258" y="31.75" rx="1.633" transform="rotate(-135 39.258 31.75)"/><rect width="4.082" height="4.082" x="45.609" y="38.68" rx="2.041" transform="rotate(-135 45.61 38.68)"/><rect width="3.266" height="3.266" x="13.855" y="19.051" rx="1.633" transform="rotate(-135 13.855 19.05)"/><rect width="2.449" height="2.449" x="20.207" y="24.824" rx="1.225" transform="rotate(-135 20.207 24.824)"/><rect width="3.266" height="3.266" x="26.557" y="31.75" rx="1.633" transform="rotate(-135 26.557 31.75)"/><rect width="2.449" height="2.449" x="32.908" y="37.523" rx="1.225" transform="rotate(-135 32.908 37.523)"/><rect width="3.266" height="3.266" x="39.258" y="44.449" rx="1.633" transform="rotate(-135 39.258 44.45)"/><rect width="2.449" height="2.449" x="7.506" y="24.824" rx="1.225" transform="rotate(-135 7.506 24.824)"/><rect width="1.633" height="1.633" x="13.855" y="30.594" rx=".816" transform="rotate(-135 13.855 30.594)"/><rect width="2.449" height="2.449" x="20.207" y="37.523" rx="1.225" transform="rotate(-135 20.207 37.523)"/><rect width="1.633" height="1.633" x="26.557" y="43.297" rx=".816" transform="rotate(-135 26.557 43.297)"/><rect width="2.449" height="2.449" x="32.908" y="50.227" rx="1.225" transform="rotate(-135 32.908 50.227)"/><rect width="1.633" height="1.633" x="1.154" y="30.594" rx=".816" transform="rotate(-135 1.154 30.594)"/><rect width="1.633" height="1.633" x="13.855" y="43.297" rx=".816" transform="rotate(-135 13.855 43.297)"/><rect width="1.633" height="1.633" x="26.557" y="56" rx=".816" transform="rotate(-135 26.557 56)"/></g><defs><clipPath id="a"><path fill="#fff" d="M0 0h56v56H0z"/></clipPath></defs></svg>