<svg xmlns="http://www.w3.org/2000/svg" width="56" height="56" fill="none"><rect width="6.026" height="6.026" x="54.688" y="8.195" fill="#000" rx="3.013" transform="rotate(180 54.688 8.195)"/><rect width="6.026" height="6.026" x="16.811" y="17.664" fill="#000" rx="3.013" transform="rotate(180 16.81 17.664)"/><rect width="6.026" height="6.026" x="45.219" y="17.664" fill="#000" rx="3.013" transform="rotate(180 45.219 17.664)"/><rect width="6.026" height="6.026" x="54.688" y="17.664" fill="#000" rx="3.013" transform="rotate(180 54.688 17.664)"/><rect width="6.026" height="6.026" x="7.34" y="27.133" fill="#000" rx="3.013" transform="rotate(180 7.34 27.133)"/><rect width="4.304" height="4.304" x="15.949" y="26.273" fill="#000" rx="2.152" transform="rotate(180 15.95 26.273)"/><rect width="6.026" height="6.026" x="26.279" y="27.133" fill="#000" rx="3.013" transform="rotate(180 26.28 27.133)"/><rect width="6.026" height="6.026" x="35.75" y="27.133" fill="#000" rx="3.013" transform="rotate(180 35.75 27.133)"/><rect width="4.304" height="4.304" x="44.357" y="26.273" fill="#000" rx="2.152" transform="rotate(180 44.357 26.273)"/><rect width="4.304" height="4.304" x="53.828" y="26.273" fill="#000" rx="2.152" transform="rotate(180 53.828 26.273)"/><rect width="4.304" height="4.304" x="6.479" y="35.742" fill="#000" rx="2.152" transform="rotate(180 6.479 35.742)"/><rect width="4.304" height="4.304" x="15.949" y="35.742" fill="#000" rx="2.152" transform="rotate(180 15.95 35.742)"/><rect width="4.304" height="4.304" x="25.418" y="35.742" fill="#000" rx="2.152" transform="rotate(180 25.418 35.742)"/><rect width="4.304" height="4.304" x="34.889" y="35.742" fill="#000" rx="2.152" transform="rotate(180 34.889 35.742)"/><rect width="4.304" height="4.304" x="44.357" y="35.742" fill="#000" rx="2.152" transform="rotate(180 44.357 35.742)"/><rect width="3.444" height="3.444" x="53.398" y="35.313" fill="#000" rx="1.722" transform="rotate(180 53.398 35.313)"/><rect width="2.583" height="2.583" x="5.617" y="44.352" fill="#000" rx="1.291" transform="rotate(180 5.617 44.352)"/><rect width="2.583" height="2.583" x="15.088" y="44.352" fill="#000" rx="1.291" transform="rotate(180 15.088 44.352)"/><rect width="2.583" height="2.583" x="24.557" y="44.352" fill="#000" rx="1.291" transform="rotate(180 24.557 44.352)"/><rect width="2.583" height="2.583" x="34.027" y="44.352" fill="#000" rx="1.291" transform="rotate(180 34.027 44.352)"/><rect width="2.583" height="2.583" x="43.498" y="44.352" fill="#000" rx="1.291" transform="rotate(180 43.498 44.352)"/><rect width="2.583" height="2.583" x="52.967" y="44.352" fill="#000" rx="1.291" transform="rotate(180 52.967 44.352)"/><rect width="1.722" height="1.722" x="5.188" y="53.391" fill="#000" rx=".861" transform="rotate(180 5.188 53.39)"/><rect width="1.722" height="1.722" x="14.656" y="53.391" fill="#000" rx=".861" transform="rotate(180 14.656 53.39)"/><rect width="1.722" height="1.722" x="24.129" y="53.391" fill="#000" rx=".861" transform="rotate(180 24.129 53.39)"/><rect width="1.722" height="1.722" x="33.598" y="53.391" fill="#000" rx=".861" transform="rotate(180 33.598 53.39)"/><rect width="1.722" height="1.722" x="43.066" y="53.391" fill="#000" rx=".861" transform="rotate(180 43.066 53.39)"/><rect width="1.722" height="1.722" x="52.537" y="53.391" fill="#000" rx=".861" transform="rotate(180 52.537 53.39)"/></svg>